<svg id="visual" viewBox="0 0 960 135" width="960" height="135" xmlns="http://www.w3.org/2000/svg" xmlns:xlink="http://www.w3.org/1999/xlink" version="1.1"><rect x="0" y="0" width="960" height="135" fill="#1b1b1b" opacity="0.7"></rect><path d="M0 46L26.7 55.2C53.3 64.3 106.7 82.7 160 85.2C213.3 87.7 266.7 74.3 320 69C373.3 63.7 426.7 66.3 480 70.2C533.3 74 586.7 79 640 80.8C693.3 82.7 746.7 81.3 800 79.8C853.3 78.3 906.7 76.7 933.3 75.8L960 75L960 136L933.3 136C906.7 136 853.3 136 800 136C746.7 136 693.3 136 640 136C586.7 136 533.3 136 480 136C426.7 136 373.3 136 320 136C266.7 136 213.3 136 160 136C106.7 136 53.3 136 26.7 136L0 136Z" fill="#2c2c2c" stroke-linecap="round" stroke-linejoin="miter"></path></svg>