<svg id="visual" viewBox="0 0 960 135" width="960" height="135" xmlns="http://www.w3.org/2000/svg" xmlns:xlink="http://www.w3.org/1999/xlink" version="1.1"><path d="M0 93L26.7 88.5C53.3 84 106.7 75 160 72.8C213.3 70.7 266.7 75.3 320 74.2C373.3 73 426.7 66 480 59.8C533.3 53.7 586.7 48.3 640 50.8C693.3 53.3 746.7 63.7 800 72.5C853.3 81.3 906.7 88.7 933.3 92.3L960 96L960 136L933.3 136C906.7 136 853.3 136 800 136C746.7 136 693.3 136 640 136C586.7 136 533.3 136 480 136C426.7 136 373.3 136 320 136C266.7 136 213.3 136 160 136C106.7 136 53.3 136 26.7 136L0 136Z" fill="#1b1b1b" opacity="0.7" stroke-linecap="round" stroke-linejoin="miter"></path></svg>