<svg id="visual" viewBox="0 0 960 135" width="960" height="135" xmlns="http://www.w3.org/2000/svg" xmlns:xlink="http://www.w3.org/1999/xlink" version="1.1"><rect x="0" y="0" width="960" height="135" fill="#2c2c2c"></rect><path d="M0 84L26.7 80C53.3 76 106.7 68 160 61.5C213.3 55 266.7 50 320 48.7C373.3 47.3 426.7 49.7 480 54.3C533.3 59 586.7 66 640 66C693.3 66 746.7 59 800 55.2C853.3 51.3 906.7 50.7 933.3 50.3L960 50L960 136L933.3 136C906.7 136 853.3 136 800 136C746.7 136 693.3 136 640 136C586.7 136 533.3 136 480 136C426.7 136 373.3 136 320 136C266.7 136 213.3 136 160 136C106.7 136 53.3 136 26.7 136L0 136Z" fill="#e4e4e4" stroke-linecap="round" stroke-linejoin="miter"></path></svg>