<svg id="visual" viewBox="0 0 900 135" width="900" height="135" xmlns="http://www.w3.org/2000/svg" xmlns:xlink="http://www.w3.org/1999/xlink" version="1.1"><rect x="0" y="0" width="900" height="135" fill="#2c2c2c"></rect><path d="M0 87L5.2 87.8C10.3 88.7 20.7 90.3 31 94.8C41.3 99.3 51.7 106.7 62 107.7C72.3 108.7 82.7 103.3 93 101C103.3 98.7 113.7 99.3 124 102.5C134.3 105.7 144.7 111.3 155 111.3C165.3 111.3 175.7 105.7 186 102.3C196.3 99 206.7 98 217 99.2C227.3 100.3 237.7 103.7 248 102C258.3 100.3 268.7 93.7 279 93.3C289.3 93 299.7 99 310 103.8C320.3 108.7 330.7 112.3 341 112.2C351.3 112 361.7 108 372 107.7C382.3 107.3 392.7 110.7 403 110.5C413.3 110.3 423.7 106.7 434.2 105.7C444.7 104.7 455.3 106.3 465.8 103.2C476.3 100 486.7 92 497 93.5C507.3 95 517.7 106 528 108.3C538.3 110.7 548.7 104.3 559 100.5C569.3 96.7 579.7 95.3 590 96.7C600.3 98 610.7 102 621 101.2C631.3 100.3 641.7 94.7 652 91.7C662.3 88.7 672.7 88.3 683 92.5C693.3 96.7 703.7 105.3 714 107.7C724.3 110 734.7 106 745 105C755.3 104 765.7 106 776 105.3C786.3 104.7 796.7 101.3 807 102C817.3 102.7 827.7 107.3 838 109.8C848.3 112.3 858.7 112.7 869 113C879.3 113.3 889.7 113.7 894.8 113.8L900 114L900 136L894.8 136C889.7 136 879.3 136 869 136C858.7 136 848.3 136 838 136C827.7 136 817.3 136 807 136C796.7 136 786.3 136 776 136C765.7 136 755.3 136 745 136C734.7 136 724.3 136 714 136C703.7 136 693.3 136 683 136C672.7 136 662.3 136 652 136C641.7 136 631.3 136 621 136C610.7 136 600.3 136 590 136C579.7 136 569.3 136 559 136C548.7 136 538.3 136 528 136C517.7 136 507.3 136 497 136C486.7 136 476.3 136 465.8 136C455.3 136 444.7 136 434.2 136C423.7 136 413.3 136 403 136C392.7 136 382.3 136 372 136C361.7 136 351.3 136 341 136C330.7 136 320.3 136 310 136C299.7 136 289.3 136 279 136C268.7 136 258.3 136 248 136C237.7 136 227.3 136 217 136C206.7 136 196.3 136 186 136C175.7 136 165.3 136 155 136C144.7 136 134.3 136 124 136C113.7 136 103.3 136 93 136C82.7 136 72.3 136 62 136C51.7 136 41.3 136 31 136C20.7 136 10.3 136 5.2 136L0 136Z" fill="#1b1b1b" stroke-linecap="round" stroke-linejoin="miter"></path></svg>